<?xml version="1.0" encoding="UTF-8" standalone="no"?> <svg width="24" height="24" viewBox="0 0 24 24" fill="none" xmlns="http://www.w3.org/2000/svg">
<path fill-rule="evenodd" clip-rule="evenodd" d="M10 2C9.44772 2 9 2.44772 9 3V4H15V3C15 2.44772 14.5523 2 14 2H10ZM17 4V3C17 1.34315 15.6569 0 14 0H10C8.34315 0 7 1.34315 7 3V4H5C3.34315 4 2 5.34315 2 7V21C2 22.6569 3.34315 24 5 24H19C20.6569 24 22 22.6569 22 21V7C22 5.34315 20.6569 4 19 4H17ZM5 6C4.44772 6 4 6.44772 4 7V21C4 21.5523 4.44772 22 5 22H19C19.5523 22 20 21.5523 20 21V7C20 6.44772 19.5523 6 19 6H5Z" fill="#293644"/>
</svg>
